<?xml version="1.0" encoding="UTF-8"?>
<svg width="151.466px" height="30.84px" viewBox="0 0 151.466 30.84" version="1.1" xmlns="http://www.w3.org/2000/svg" xmlns:xlink="http://www.w3.org/1999/xlink">
    <g id="Page-1" stroke="none" stroke-width="1" fill="none" fill-rule="evenodd">
        <g id="D-logo-MD-blanc-141px" fill="#FFFFFF" fill-rule="nonzero">
            <g id="Group">
                <path d="M41.661,6.855 L35.747,6.854 L35.747,23.985 L41.731,23.985 C47.089,23.985 50.551,20.634 50.551,15.449 C50.551,10.309 46.978,6.855 41.661,6.855 Z M41.495,21.076 L39.24,21.076 L39.24,9.785 L41.651,9.785 C44.801,9.785 47.088,12.169 47.088,15.455 C47.087,18.765 44.788,21.076 41.495,21.076 Z" id="Shape"></path>
                <path d="M0,7.71 L0,23.13 L13.354,30.84 L26.708,23.13 L26.708,7.71 L13.354,0 L0,7.71 Z M23.092,9.798 L23.092,21.043 L13.354,26.665 L3.616,21.043 L3.616,9.798 L13.354,4.176 L23.092,9.798 Z" id="Shape"></path>
                <path d="M118.901,8.388 C118.901,9.373 118.099,10.175 117.114,10.175 C116.129,10.175 115.327,9.373 115.327,8.388 C115.327,7.403 116.129,6.601 117.114,6.601 C118.099,6.601 118.901,7.402 118.901,8.388 Z M118.645,12.245 L115.583,12.245 L115.583,23.985 L118.645,23.985 L118.645,12.245 Z" id="Shape"></path>
                <path d="M70.254,16.724 C68.943,16.219 68.535,15.973 68.535,15.419 C68.535,14.893 68.957,14.58 69.664,14.58 C70.83,14.58 71.703,15.212 72.472,15.904 L74.249,14.005 C73.107,12.775 71.41,12.043 69.7,12.043 C67.221,12.043 65.488,13.482 65.488,15.543 C65.488,17.889 67.3,18.804 69.074,19.39 C69.287,19.46 69.483,19.522 69.665,19.579 C70.674,19.897 71.23,20.073 71.23,20.682 C71.23,21.023 71.045,21.595 69.799,21.595 C68.645,21.595 67.507,21.035 66.88,20.165 L65.078,22.08 C66.327,23.496 67.858,24.184 69.759,24.184 C72.561,24.184 74.3020005,22.825 74.3020005,20.637 C74.303,18.443 72.774,17.695 70.254,16.724 Z" id="Path"></path>
                <path d="M138.948,16.724 C137.637,16.219 137.229,15.973 137.229,15.419 C137.229,14.893 137.651,14.58 138.358,14.58 C139.524,14.58 140.397,15.212 141.167,15.904 L142.943,14.005 C141.801,12.775 140.105,12.043 138.394,12.043 C135.914,12.043 134.182,13.482 134.182,15.543 C134.182,17.889 135.994,18.804 137.768,19.39 C137.981,19.46 138.177,19.522 138.358,19.579 C139.369,19.897 139.924,20.073 139.924,20.682 C139.924,21.023 139.738,21.595 138.493,21.595 C137.339,21.595 136.201,21.035 135.574,20.165 L133.772,22.08 C135.021,23.496 136.552,24.184 138.453,24.184 C141.256,24.184 142.996,22.825 142.996,20.637 C142.996,18.443 141.467,17.695 138.948,16.724 Z" id="Path"></path>
                <path d="M79.765,8.388 C79.765,9.373 78.963,10.175 77.978,10.175 C76.993,10.175 76.191,9.373 76.191,8.388 C76.191,7.403 76.993,6.601 77.978,6.601 C78.963,6.601 79.765,7.402 79.765,8.388 Z M76.13,28.544 C78.147,28.544 79.512,27.157 79.512,24.395 L79.512,12.245 L76.44,12.245 L76.44,24.268 C76.44,25.334 76.004,25.862 75.271,25.862 C74.916,25.862 74.572,25.759 74.25,25.575 L73.734,28.131 C74.492,28.429 75.11,28.544 76.13,28.544 L76.13,28.544 Z" id="Shape"></path>
                <path d="M89.463,12.897 C88.641,12.354 87.498,12.043 86.327,12.043 C84.396,12.043 82.811,12.738 81.859,14.001 C82.067,14.227 83.388,15.628 83.645,15.896 C84.127,15.224 84.585,14.876 85.264,14.664 C85.517,14.585 85.792,14.544 86.083,14.544 C86.456,14.544 86.83,14.612 87.108,14.73 C87.834,15.039 88.25,15.641 88.25,16.384 L88.25,17.15 C88.165,17.107 87.207,16.7 85.654,16.7 C83.182,16.7 81.319,18.332 81.319,20.497 C81.319,22.635 82.921,24.187 85.129,24.187 C86.507,24.187 87.362,23.581 88.118,22.955 L88.25,22.955 L88.25,23.986 L91.1570052,23.986 L91.1570052,16.309 C91.159,14.789 90.588,13.641 89.463,12.897 Z M88.251,20.153 C88.251,20.75 87.003,21.699 85.524,21.699 C84.611,21.699 84.01,21.097 84.01,20.346 C84.01,19.856 84.282,18.949 85.868,18.949 C87.04,18.949 88.25,19.315 88.25,19.315 L88.25,20.153 L88.251,20.153 Z" id="Shape"></path>
                <path d="M96.855,13.62 L96.779,13.62 L96.779,12.244 L93.658,12.244 L93.658,23.985 L96.779,23.985 L96.774,18.7 C96.774,16.581 97.824,15.139 100.47,15.139 L100.47,12.044 C98.893,12.068 97.616,12.547 96.855,13.62 Z" id="Path"></path>
                <path d="M110.017,22.955 L110.161,22.955 L110.161,23.985 L113.074,23.985 L113.074,6.855 L110.007,6.855 L110.007,13.212 L109.889,13.212 C109.281,12.483 107.839,12.044 106.863,12.044 C103.14,12.044 101.131,15.172 101.131,18.115 C101.131,20.357 102.099,21.772 102.909,22.565 C103.963,23.595 105.404,24.186 106.863,24.186 C107.561,24.186 108.672,23.977 110.017,22.955 Z M107.039,21.416 C105.355,21.416 104.037,19.966 104.037,18.114 C104.037,16.256 105.349,14.8 107.024,14.8 C108.884,14.8 110.037,16.52 110.037,18.114 C110.038,19.935 108.693,21.416 107.039,21.416 Z" id="Shape"></path>
                <path d="M124.332,13.205 L124.214,13.205 L124.214,12.244 L121.147,12.244 L121.147,23.984 L124.214,23.984 L124.214,17.875 C124.214,15.176 125.89,14.773 126.889,14.773 C128.657,14.773 129.286,16.241 129.286,17.614 L129.286,23.984 L132.353,23.984 L132.353,17.651 C132.353,14.136 130.474,12.044 127.326,12.044 C125.153,12.044 124.348,13.171 124.332,13.205 Z" id="Path"></path>
                <path d="M63.814,17.986 C63.794,14.476 61.43,12.044 58.051,12.044 C54.677,12.044 52.229,14.592 52.229,18.104 C52.229,21.686 54.715,24.187 58.276,24.187 C60.36,24.187 62.17,23.42 63.248,22.082 C63.028,21.84 61.664,20.405 61.421,20.16 C60.856,20.804 59.816,21.475 58.518,21.475 C56.964,21.475 55.79,20.597 55.411,19.092 L63.744,19.092 C63.792,18.869 63.814,18.362 63.814,17.986 Z M55.421,16.913 C55.77,15.506 56.789,14.732 58.157,14.732 C59.494,14.732 60.442,15.483 60.786,16.913 L55.421,16.913 Z" id="Shape"></path>
            </g>
            <g id="Group" transform="translate(144.412000, 12.608000)">
                <polygon id="Path" points="3.433 0 3.433 3.386 2.77 3.386 2.77 1.283 2.761 1.283 1.936 2.742 1.502 2.742 0.677 1.283 0.668 1.283 0.668 3.386 0 3.386 0 0 0.677 0 1.716 1.927 1.726 1.927 2.761 0"></polygon>
                <path d="M4.175,0 L5.295,0 C6.367,0 7.054,0.696 7.054,1.698 C7.054,2.694 6.396,3.386 5.309,3.386 L4.174,3.386 L4.174,0 L4.175,0 Z M5.266,2.789 C5.924,2.789 6.358,2.317 6.358,1.698 C6.358,1.064 5.919,0.601 5.309,0.601 L4.837,0.601 L4.837,2.789 L5.266,2.789 L5.266,2.789 Z" id="Shape"></path>
            </g>
        </g>
    </g>
</svg>