<?xml version="1.0" encoding="utf-8"?>
<!-- Generator: Adobe Illustrator 16.0.0, SVG Export Plug-In . SVG Version: 6.00 Build 0)  -->
<!DOCTYPE svg PUBLIC "-//W3C//DTD SVG 1.1//EN" "http://www.w3.org/Graphics/SVG/1.1/DTD/svg11.dtd">
<svg version="1.1" id="logo-appstore-f" xmlns="http://www.w3.org/2000/svg" xmlns:xlink="http://www.w3.org/1999/xlink" x="0px"
	 y="0px" width="135px" height="40px" viewBox="6 60.5 135 40" enable-background="new 6 60.5 135 40" xml:space="preserve">
<path id="bordure" fill="#A6A6A6" d="M136.229,100.5H10.76C8.153,100.5,6,98.372,6,95.768V65.227C6,62.62,8.153,60.5,10.76,60.5
	h125.469c2.605,0,4.771,2.12,4.771,4.727v30.541C141,98.372,138.834,100.5,136.229,100.5L136.229,100.5z"/>
<path id="fond" d="M140.032,95.768c0,2.116-1.714,3.83-3.834,3.83H10.729c-2.119,0-3.839-1.714-3.839-3.83V65.225
	c0-2.115,1.72-3.834,3.839-3.834h125.468c2.121,0,3.834,1.719,3.834,3.834L140.032,95.768L140.032,95.768z"/>
<path id="pomme" fill="#FFFFFF" d="M36.159,80.284c-0.029-3.224,2.639-4.791,2.761-4.864c-1.511-2.203-3.853-2.504-4.676-2.527
	c-1.967-0.207-3.875,1.176-4.877,1.176c-1.022,0-2.565-1.155-4.228-1.123c-2.14,0.033-4.142,1.272-5.24,3.197
	c-2.266,3.922-0.576,9.688,1.595,12.858c1.086,1.554,2.355,3.287,4.016,3.226c1.625-0.065,2.232-1.035,4.193-1.035
	c1.943,0,2.513,1.035,4.207,0.996c1.744-0.026,2.842-1.56,3.89-3.127c1.255-1.778,1.759-3.533,1.779-3.623
	C39.539,85.424,36.192,84.146,36.159,80.284z"/>
<path id="feuille" fill="#FFFFFF" d="M32.959,70.807c0.874-1.094,1.472-2.58,1.306-4.09c-1.265,0.057-2.848,0.874-3.758,1.944
	c-0.806,0.942-1.526,2.485-1.34,3.938C30.588,72.705,32.047,71.882,32.959,70.807z"/>
<path id="l_1_" fill="#FFFFFF" d="M51.175,92.004h-1.944V79.242h1.944V92.004z"/>
<path id="apostrophe" fill="#FFFFFF" d="M56.251,79.548c-0.516,1.812-1.128,3.3-1.836,4.464l-1.206,0.127
	c0.528-1.439,0.906-2.91,1.134-4.41L56.251,79.548z"/>
<path id="a_2_" fill="#FFFFFF" d="M65.773,92.004h-2.07l-1.134-3.563h-3.942l-1.08,3.563h-2.016l3.906-12.132h2.412L65.773,92.004z
	 M62.227,86.945l-1.026-3.168c-0.108-0.323-0.312-1.086-0.612-2.286h-0.036c-0.12,0.516-0.312,1.278-0.576,2.286l-1.008,3.168
	H62.227z"/>
<path id="p_1_" fill="#FFFFFF" d="M75.816,87.521c0,1.486-0.402,2.664-1.207,3.526c-0.721,0.771-1.614,1.152-2.684,1.152
	c-1.15,0-1.979-0.414-2.482-1.242h-0.036v4.606h-1.944v-9.433c0-0.937-0.024-1.896-0.072-2.88h1.71l0.106,1.387h0.036
	c0.646-1.045,1.632-1.564,2.951-1.564c1.031,0,1.894,0.406,2.582,1.224C75.471,85.116,75.816,86.189,75.816,87.521z M73.836,87.594
	c0-0.852-0.191-1.554-0.576-2.104c-0.42-0.576-0.984-0.864-1.691-0.864c-0.479,0-0.916,0.159-1.305,0.479
	c-0.391,0.315-0.646,0.732-0.766,1.25c-0.061,0.238-0.09,0.438-0.09,0.594v1.457c0,0.638,0.195,1.175,0.585,1.611
	c0.39,0.438,0.897,0.656,1.521,0.656c0.732,0,1.303-0.281,1.711-0.846C73.632,89.262,73.836,88.52,73.836,87.594z"/>
<path id="p" fill="#FFFFFF" d="M85.879,87.521c0,1.486-0.402,2.664-1.207,3.526c-0.719,0.771-1.613,1.152-2.682,1.152
	c-1.152,0-1.98-0.414-2.484-1.242h-0.035v4.606h-1.945v-9.433c0-0.937-0.021-1.896-0.068-2.88h1.709l0.105,1.387h0.037
	c0.648-1.045,1.631-1.564,2.951-1.564c1.033,0,1.893,0.406,2.584,1.224C85.533,85.116,85.879,86.189,85.879,87.521z M83.898,87.594
	c0-0.852-0.191-1.554-0.576-2.104c-0.42-0.576-0.984-0.864-1.691-0.864c-0.48,0-0.916,0.159-1.305,0.479
	c-0.391,0.315-0.646,0.732-0.766,1.25c-0.063,0.238-0.09,0.438-0.09,0.594v1.457c0,0.638,0.193,1.175,0.584,1.611
	c0.391,0.438,0.896,0.656,1.521,0.656c0.731,0,1.303-0.281,1.711-0.846C83.693,89.262,83.898,88.52,83.898,87.594z"/>
<path id="s_1_" fill="#FFFFFF" d="M97.127,88.604c0,1.03-0.359,1.871-1.076,2.521c-0.791,0.708-1.893,1.063-3.305,1.063
	c-1.307,0-2.354-0.252-3.145-0.756l0.447-1.621c0.854,0.518,1.789,0.773,2.811,0.773c0.73,0,1.303-0.165,1.711-0.496
	c0.408-0.33,0.613-0.771,0.613-1.324c0-0.492-0.168-0.906-0.504-1.244c-0.338-0.336-0.896-0.648-1.676-0.938
	c-2.125-0.793-3.188-1.953-3.188-3.479c0-0.998,0.373-1.814,1.117-2.453c0.743-0.637,1.733-0.955,2.971-0.955
	c1.104,0,2.021,0.191,2.755,0.576l-0.486,1.582c-0.685-0.371-1.459-0.558-2.321-0.558c-0.685,0-1.22,0.168-1.603,0.504
	c-0.324,0.3-0.485,0.666-0.485,1.099c0,0.479,0.187,0.875,0.56,1.188c0.321,0.288,0.909,0.601,1.764,0.937
	c1.043,0.42,1.812,0.912,2.304,1.478C96.882,87.064,97.127,87.762,97.127,88.604z"/>
<path id="t_1_" fill="#FFFFFF" d="M103.553,84.714h-2.141v4.248c0,1.08,0.377,1.62,1.133,1.62c0.348,0,0.637-0.03,0.865-0.09
	l0.053,1.476c-0.383,0.146-0.887,0.216-1.512,0.216c-0.768,0-1.367-0.231-1.799-0.701c-0.436-0.469-0.648-1.254-0.648-2.356v-4.41
	h-1.279v-1.458h1.279v-1.604l1.908-0.574v2.178h2.141V84.714L103.553,84.714z"/>
<path id="o" fill="#FFFFFF" d="M113.219,87.559c0,1.344-0.385,2.447-1.152,3.313c-0.805,0.888-1.871,1.332-3.203,1.332
	c-1.283,0-2.309-0.427-3.068-1.278c-0.762-0.852-1.145-1.926-1.145-3.222c0-1.354,0.395-2.468,1.182-3.33
	c0.785-0.864,1.844-1.296,3.176-1.296c1.285,0,2.316,0.426,3.098,1.275C112.846,85.182,113.219,86.25,113.219,87.559z
	 M111.203,87.621c0-0.807-0.174-1.498-0.523-2.076c-0.408-0.697-0.988-1.047-1.746-1.047c-0.779,0-1.373,0.35-1.781,1.047
	c-0.348,0.578-0.521,1.281-0.521,2.111c0,0.808,0.175,1.498,0.521,2.076c0.422,0.697,1.01,1.047,1.766,1.047
	c0.744,0,1.326-0.354,1.746-1.064C111.021,89.125,111.203,88.427,111.203,87.621z"/>
<path id="r_2_" fill="#FFFFFF" d="M119.535,84.966c-0.191-0.036-0.395-0.054-0.611-0.054c-0.684,0-1.213,0.258-1.584,0.773
	c-0.324,0.457-0.486,1.031-0.486,1.729v4.59h-1.941l0.02-5.994c0-1.008-0.023-1.926-0.072-2.754h1.691l0.07,1.674h0.055
	c0.205-0.576,0.527-1.037,0.975-1.386c0.432-0.312,0.898-0.468,1.402-0.468c0.182,0,0.344,0.012,0.484,0.035L119.535,84.966
	L119.535,84.966z"/>
<path id="e_3_" fill="#FFFFFF" d="M128.23,87.216c0,0.349-0.025,0.642-0.072,0.882h-5.832c0.023,0.864,0.307,1.524,0.846,1.98
	c0.492,0.408,1.129,0.611,1.908,0.611c0.863,0,1.65-0.14,2.357-0.414l0.307,1.351c-0.828,0.36-1.807,0.54-2.934,0.54
	c-1.357,0-2.422-0.398-3.195-1.197c-0.773-0.798-1.16-1.869-1.16-3.213c0-1.32,0.359-2.418,1.078-3.294
	c0.758-0.937,1.777-1.403,3.061-1.403c1.26,0,2.215,0.467,2.863,1.403C127.973,85.206,128.23,86.124,128.23,87.216z M126.377,86.712
	c0.012-0.576-0.115-1.073-0.379-1.494c-0.336-0.54-0.852-0.81-1.549-0.81c-0.635,0-1.15,0.264-1.547,0.791
	c-0.324,0.421-0.516,0.925-0.576,1.513H126.377z"/>
<path id="t" fill="#FFFFFF" d="M53.84,68.277h-1.872v5.656H50.92v-5.656h-1.862v-0.881h4.782V68.277z"/>
<path id="e_2_" fill="#FFFFFF" d="M58.981,71.354c0,0.188-0.014,0.347-0.039,0.476h-3.143c0.013,0.466,0.164,0.819,0.455,1.065
	c0.266,0.222,0.608,0.33,1.028,0.33c0.466,0,0.89-0.074,1.271-0.223l0.164,0.729c-0.446,0.193-0.973,0.291-1.581,0.291
	c-0.729,0-1.305-0.215-1.722-0.646s-0.625-1.007-0.625-1.731c0-0.711,0.193-1.303,0.582-1.773c0.407-0.504,0.956-0.756,1.648-0.756
	c0.679,0,1.193,0.252,1.542,0.756C58.841,70.27,58.981,70.766,58.981,71.354z M57.981,71.082c0.007-0.311-0.062-0.579-0.203-0.805
	c-0.182-0.291-0.459-0.438-0.834-0.438c-0.343,0-0.621,0.144-0.835,0.429c-0.174,0.227-0.277,0.498-0.31,0.813L57.981,71.082
	L57.981,71.082z M58.409,67.24l-1.174,1.406h-0.728l0.844-1.406H58.409z"/>
<path id="l" fill="#FFFFFF" d="M61.55,73.934h-1.048v-6.877h1.048V73.934z"/>
<path id="e_1_" fill="#FFFFFF" d="M67.293,71.354c0,0.188-0.014,0.347-0.039,0.476h-3.143c0.013,0.466,0.164,0.819,0.455,1.065
	c0.266,0.222,0.608,0.33,1.028,0.33c0.466,0,0.89-0.074,1.271-0.223l0.164,0.729c-0.446,0.193-0.973,0.291-1.581,0.291
	c-0.73,0-1.305-0.215-1.722-0.646s-0.625-1.007-0.625-1.731c0-0.711,0.193-1.303,0.582-1.773c0.407-0.504,0.956-0.756,1.648-0.756
	c0.679,0,1.193,0.252,1.542,0.756C67.154,70.27,67.293,70.766,67.293,71.354z M66.293,71.082c0.007-0.311-0.062-0.579-0.203-0.805
	c-0.182-0.291-0.459-0.438-0.834-0.438c-0.343,0-0.621,0.144-0.835,0.429c-0.174,0.227-0.277,0.498-0.31,0.813L66.293,71.082
	L66.293,71.082z M66.721,67.24l-1.174,1.406H64.82l0.844-1.406H66.721z"/>
<path id="c" fill="#FFFFFF" d="M72.182,69.346l-0.203,0.795c-0.267-0.13-0.568-0.195-0.912-0.195c-0.459,0-0.822,0.154-1.092,0.463
	c-0.269,0.307-0.401,0.695-0.401,1.169c0,0.498,0.141,0.892,0.422,1.183c0.28,0.291,0.639,0.438,1.071,0.438
	c0.322,0,0.641-0.063,0.949-0.193l0.146,0.786c-0.344,0.162-0.775,0.243-1.301,0.243c-0.717,0-1.289-0.219-1.717-0.655
	s-0.641-1.021-0.641-1.751s0.229-1.331,0.688-1.799c0.459-0.469,1.076-0.703,1.854-0.703C71.486,69.122,71.865,69.195,72.182,69.346
	z"/>
<path id="h" fill="#FFFFFF" d="M77.709,73.934h-1.047v-2.681c0-0.845-0.316-1.269-0.951-1.269c-0.484,0-0.818,0.246-0.999,0.736
	c-0.032,0.103-0.049,0.229-0.049,0.377v2.834h-1.048v-6.875h1.048v2.84h0.021c0.33-0.518,0.801-0.774,1.416-0.774
	c0.436,0,0.791,0.142,1.076,0.427c0.355,0.355,0.533,0.883,0.533,1.581V73.934z"/>
<path id="a_1_" fill="#FFFFFF" d="M83.084,73.934h-0.941l-0.078-0.543h-0.027c-0.322,0.434-0.781,0.649-1.377,0.649
	c-0.445,0-0.807-0.144-1.076-0.427c-0.246-0.258-0.369-0.579-0.369-0.961c0-0.575,0.24-1.014,0.725-1.318
	c0.48-0.305,1.16-0.453,2.033-0.445V70.8c0-0.62-0.326-0.931-0.979-0.931c-0.466,0-0.875,0.117-1.229,0.349l-0.213-0.688
	c0.438-0.271,0.979-0.405,1.617-0.405c1.232,0,1.85,0.649,1.85,1.95v1.734C83.016,73.279,83.039,73.654,83.084,73.934z
	 M81.996,72.313v-0.727c-1.156-0.02-1.734,0.297-1.734,0.95c0,0.246,0.066,0.43,0.201,0.553s0.307,0.185,0.512,0.185
	c0.23,0,0.445-0.072,0.643-0.219c0.197-0.146,0.316-0.33,0.361-0.558C81.99,72.445,81.996,72.384,81.996,72.313z"/>
<path id="r_1_" fill="#FFFFFF" d="M87.342,70.141c-0.104-0.02-0.213-0.029-0.33-0.029c-0.367,0-0.652,0.141-0.854,0.418
	c-0.174,0.246-0.262,0.557-0.262,0.932v2.475H84.85l0.01-3.229c0-0.543-0.014-1.038-0.039-1.483h0.912l0.039,0.901h0.029
	c0.109-0.312,0.283-0.56,0.523-0.747c0.232-0.168,0.484-0.252,0.756-0.252c0.098,0,0.186,0.006,0.262,0.02V70.141z"/>
<path id="g" fill="#FFFFFF" d="M92.813,69.219c-0.024,0.383-0.039,0.828-0.039,1.34v2.695c0,1.016-0.228,1.727-0.678,2.135
	c-0.414,0.375-0.996,0.563-1.746,0.563c-0.654,0-1.183-0.123-1.582-0.369l0.241-0.807c0.396,0.24,0.843,0.359,1.341,0.359
	c0.924,0,1.387-0.498,1.387-1.494v-0.455h-0.021c-0.291,0.479-0.754,0.717-1.387,0.717c-0.57,0-1.039-0.215-1.406-0.648
	c-0.368-0.434-0.553-0.982-0.553-1.648c0-0.756,0.213-1.367,0.639-1.832c0.396-0.435,0.877-0.65,1.445-0.65
	c0.642,0,1.101,0.249,1.379,0.747h0.019l0.039-0.65L92.813,69.219L92.813,69.219z M91.727,71.916v-0.834
	c0-0.316-0.1-0.588-0.297-0.814c-0.199-0.228-0.459-0.34-0.785-0.34c-0.355,0-0.648,0.148-0.881,0.446
	c-0.229,0.298-0.346,0.694-0.346,1.192c0,0.453,0.107,0.817,0.322,1.097c0.219,0.304,0.521,0.456,0.904,0.456
	c0.232,0,0.441-0.069,0.629-0.208c0.186-0.14,0.314-0.328,0.395-0.567C91.707,72.227,91.727,72.083,91.727,71.916z"/>
<path id="e" fill="#FFFFFF" d="M98.516,71.354c0,0.188-0.014,0.347-0.039,0.476h-3.143c0.014,0.466,0.164,0.819,0.455,1.065
	c0.266,0.222,0.609,0.33,1.029,0.33c0.465,0,0.889-0.074,1.271-0.223l0.164,0.729c-0.446,0.193-0.974,0.291-1.582,0.291
	c-0.729,0-1.305-0.215-1.721-0.646c-0.418-0.431-0.625-1.007-0.625-1.731c0-0.711,0.192-1.303,0.582-1.773
	c0.405-0.504,0.954-0.756,1.647-0.756c0.678,0,1.192,0.252,1.541,0.756C98.377,70.27,98.516,70.766,98.516,71.354z M97.516,71.082
	c0.008-0.311-0.061-0.579-0.203-0.805c-0.182-0.291-0.459-0.438-0.834-0.438c-0.342,0-0.621,0.144-0.834,0.429
	c-0.174,0.227-0.275,0.498-0.311,0.813L97.516,71.082L97.516,71.082z"/>
<path id="r" fill="#FFFFFF" d="M102.531,70.141c-0.104-0.02-0.213-0.029-0.33-0.029c-0.369,0-0.652,0.141-0.854,0.418
	c-0.176,0.246-0.264,0.557-0.264,0.932v2.475h-1.049l0.01-3.229c0-0.543-0.012-1.038-0.037-1.483h0.91l0.039,0.901h0.027
	c0.109-0.312,0.285-0.56,0.523-0.747c0.234-0.168,0.486-0.252,0.758-0.252c0.098,0,0.186,0.006,0.262,0.02v0.998h0.004V70.141z"/>
<path id="d" fill="#FFFFFF" d="M110.893,73.934h-0.932l-0.049-0.758h-0.029c-0.297,0.576-0.801,0.864-1.512,0.864
	c-0.57,0-1.041-0.224-1.416-0.669c-0.375-0.446-0.563-1.025-0.563-1.736c0-0.763,0.203-1.381,0.608-1.853
	c0.396-0.44,0.881-0.66,1.455-0.66c0.635,0,1.078,0.213,1.33,0.64h0.021v-2.705h1.047v5.606
	C110.854,73.122,110.867,73.545,110.893,73.934z M109.807,71.945v-0.786c0-0.136-0.01-0.246-0.029-0.33
	c-0.059-0.252-0.186-0.464-0.381-0.636c-0.193-0.17-0.428-0.256-0.701-0.256c-0.389,0-0.693,0.153-0.92,0.465
	c-0.225,0.312-0.336,0.709-0.336,1.193c0,0.467,0.107,0.844,0.322,1.135c0.229,0.311,0.531,0.465,0.914,0.465
	c0.344,0,0.621-0.129,0.828-0.387C109.705,72.568,109.807,72.281,109.807,71.945z"/>
<path id="a" fill="#FFFFFF" d="M116.246,73.934h-0.941l-0.076-0.543H115.2c-0.324,0.434-0.783,0.649-1.377,0.649
	c-0.447,0-0.808-0.144-1.078-0.427c-0.246-0.258-0.367-0.579-0.367-0.961c0-0.575,0.24-1.014,0.724-1.318
	c0.479-0.305,1.157-0.453,2.03-0.445V70.8c0-0.62-0.325-0.931-0.978-0.931c-0.465,0-0.875,0.117-1.229,0.349l-0.213-0.688
	c0.438-0.271,0.979-0.405,1.617-0.405c1.233,0,1.851,0.649,1.851,1.95v1.734C116.178,73.279,116.201,73.654,116.246,73.934z
	 M115.16,72.313v-0.727c-1.158-0.02-1.736,0.297-1.736,0.95c0,0.246,0.068,0.43,0.203,0.553s0.305,0.185,0.51,0.185
	c0.232,0,0.445-0.072,0.643-0.219c0.195-0.146,0.316-0.33,0.361-0.558C115.154,72.445,115.16,72.384,115.16,72.313z"/>
<path id="n" fill="#FFFFFF" d="M122.105,73.934h-1.049v-2.701c0-0.832-0.316-1.248-0.949-1.248c-0.313,0-0.563,0.115-0.758,0.345
	c-0.193,0.229-0.291,0.499-0.291,0.808v2.797h-1.047v-3.365c0-0.414-0.016-0.863-0.039-1.351h0.922l0.049,0.737h0.029
	c0.119-0.229,0.303-0.418,0.543-0.569c0.281-0.176,0.602-0.265,0.947-0.265c0.439,0,0.809,0.143,1.1,0.427
	c0.359,0.351,0.543,0.87,0.543,1.563V73.934L122.105,73.934z"/>
<path id="s" fill="#FFFFFF" d="M126.83,72.579c0,0.438-0.162,0.79-0.484,1.055c-0.324,0.265-0.77,0.397-1.34,0.397
	c-0.537,0-0.992-0.107-1.367-0.32l0.223-0.775c0.363,0.219,0.748,0.33,1.154,0.33c0.537,0,0.805-0.197,0.805-0.593
	c0-0.174-0.057-0.317-0.174-0.432c-0.117-0.113-0.322-0.226-0.621-0.334c-0.84-0.312-1.26-0.763-1.26-1.358
	c0-0.406,0.154-0.747,0.465-1.02c0.313-0.271,0.723-0.406,1.232-0.406c0.465,0,0.863,0.095,1.193,0.285l-0.225,0.753
	c-0.305-0.181-0.623-0.271-0.959-0.271c-0.223,0-0.395,0.051-0.518,0.153c-0.121,0.104-0.186,0.233-0.186,0.396
	s0.064,0.293,0.193,0.396c0.111,0.098,0.324,0.203,0.641,0.319C126.422,71.466,126.83,71.939,126.83,72.579z"/>
</svg>
