<?xml version="1.0" encoding="UTF-8"?>
<svg width="114px" height="32px" viewBox="0 0 114 32" version="1.1" xmlns="http://www.w3.org/2000/svg" xmlns:xlink="http://www.w3.org/1999/xlink">
    <title>logo-assurance-f</title>
    <defs>
        <polygon id="path-1" points="0 -7.12645039e-15 3.73417624 -7.12645039e-15 3.73417624 4.88071812 0 4.88071812"></polygon>
        <polygon id="path-3" points="0 -7.12645039e-15 3.73417624 -7.12645039e-15 3.73417624 4.88071812 0 4.88071812"></polygon>
        <polygon id="path-5" points="0 0 4.39746288 0 4.39746288 4.80361065 0 4.80361065"></polygon>
        <polygon id="path-7" points="0 0 4.10886942 0 4.10886942 4.88063788 0 4.88063788"></polygon>
        <polygon id="path-9" points="0 0 4.48435981 0 4.48435981 4.88119954 0 4.88119954"></polygon>
        <polygon id="path-11" points="0 -7.12645039e-15 3.73417624 -7.12645039e-15 3.73417624 4.88071812 0 4.88071812"></polygon>
        <polygon id="path-13" points="0 0 21.2924579 0 21.2924579 24.7449977 0 24.7449977"></polygon>
        <polygon id="path-15" points="0 32 114 32 114 0 0 0"></polygon>
    </defs>
    <g id="se-connecter" stroke="none" stroke-width="1" fill="none" fill-rule="evenodd">
        <g id="Artboard" transform="translate(-560.000000, -375.000000)">
            <g id="logo-assurance-f" transform="translate(560.000000, 375.000000)">
                <path d="M30.413287,25.0466075 L27.8829122,31.9228925 L29.2971797,31.9228925 L29.7587698,30.5468332 L32.3856081,30.5468332 L32.8479954,31.9228925 L34.2622628,31.9228925 L31.7127548,25.0466075 L30.413287,25.0466075 Z M31.0574404,26.6826338 L31.0773709,26.6826338 L31.9909844,29.3850058 L30.1541906,29.3850058 L31.0574404,26.6826338 Z" id="Fill-1" fill="#000000"></path>
                <g id="Group-41">
                    <g id="Group-4" transform="translate(34.605625, 27.119282)">
                        <mask id="mask-2" fill="white">
                            <use xlink:href="#path-1"></use>
                        </mask>
                        <g id="Clip-3"></g>
                        <path d="M0,4.19316985 L0.615453471,3.31136854 C1.00130772,3.67965498 1.40549802,3.86339702 1.91492129,3.86339702 C2.28084505,3.86339702 2.49210823,3.70854019 2.49210823,3.47665614 C2.49210823,3.25359811 2.25134793,3.14688331 1.63589446,2.95351286 C0.866577621,2.69194123 0.192927124,2.32365478 0.192927124,1.41377062 C0.192927124,0.561656888 0.923977426,-7.12645039e-15 1.88622139,-7.12645039e-15 C2.54073862,-7.12645039e-15 3.07009238,0.174113635 3.59944614,0.590542099 L2.99276209,1.51968307 C2.62683833,1.17145579 2.21308139,1.01659897 1.86708812,1.01659897 C1.66539158,1.01659897 1.40549802,1.12331378 1.40549802,1.37525701 C1.40549802,1.56862745 1.65502773,1.70422747 2.11661783,1.87834111 C3.13705882,2.25625596 3.73417624,2.47931398 3.73417624,3.40845494 C3.73417624,4.25094027 3.13705882,4.88079836 1.90535466,4.88079836 C1.15437387,4.88079836 0.519787128,4.63848353 0,4.19316985" id="Fill-2" fill="#000000" mask="url(#mask-2)"></path>
                    </g>
                    <g id="Group-7" transform="translate(38.743514, 27.119282)">
                        <mask id="mask-4" fill="white">
                            <use xlink:href="#path-3"></use>
                        </mask>
                        <g id="Clip-6"></g>
                        <path d="M0,4.19316985 L0.615453471,3.31136854 C1.00130772,3.67965498 1.40549802,3.86339702 1.91492129,3.86339702 C2.28084505,3.86339702 2.49210823,3.70854019 2.49210823,3.47665614 C2.49210823,3.25359811 2.25134793,3.14688331 1.63589446,2.95351286 C0.866577621,2.69194123 0.192927124,2.32365478 0.192927124,1.41377062 C0.192927124,0.561656888 0.923977426,-7.12645039e-15 1.88622139,-7.12645039e-15 C2.54073862,-7.12645039e-15 3.07009238,0.174113635 3.59944614,0.590542099 L2.99276209,1.51968307 C2.62683833,1.17145579 2.21308139,1.01659897 1.86708812,1.01659897 C1.66539158,1.01659897 1.40549802,1.12331378 1.40549802,1.37525701 C1.40549802,1.56862745 1.65502773,1.70422747 2.11661783,1.87834111 C3.13785604,2.25625596 3.73417624,2.47931398 3.73417624,3.40845494 C3.73417624,4.25094027 3.13785604,4.88079836 1.90615188,4.88079836 C1.15437387,4.88079836 0.519787128,4.63848353 0,4.19316985" id="Fill-5" fill="#000000" mask="url(#mask-4)"></path>
                    </g>
                    <g id="Group-10" transform="translate(43.179323, 27.196389)">
                        <mask id="mask-6" fill="white">
                            <use xlink:href="#path-5"></use>
                        </mask>
                        <g id="Clip-9"></g>
                        <path d="M4.39746288,0 L4.39746288,4.72594153 L3.13705882,4.72594153 L3.13705882,4.14502783 L3.11792555,4.14502783 C2.76156842,4.5807131 2.25214515,4.80377112 1.72279139,4.80377112 C0.711917033,4.80377112 0,4.29025626 0,2.84760042 L0,0 L1.25163465,0 L1.25163465,2.50819919 C1.25163465,3.37956973 1.51073099,3.67082895 2.09748456,3.67082895 C2.64676881,3.67082895 3.13705882,3.2054561 3.13705882,2.29557194 L3.13705882,0 L4.39746288,0 Z" id="Fill-8" fill="#000000" mask="url(#mask-6)"></path>
                    </g>
                    <path d="M51.4211375,27.1285893 L51.4211375,28.5038463 C51.295974,28.4942179 51.1612439,28.4942179 51.0942775,28.4942179 C50.3145968,28.4942179 49.8912732,29.0269896 49.8912732,29.7242465 L49.8912732,31.9227321 L48.6308692,31.9227321 L48.6308692,27.1959882 L49.8912732,27.1959882 L49.8912732,27.8940474 L49.9008399,27.8940474 C50.2563998,27.390161 50.7674175,27.1189609 51.3246739,27.1189609 C51.3637377,27.1189609 51.4020042,27.1189609 51.4211375,27.1285893" id="Fill-11" fill="#000000"></path>
                    <g id="Group-15" transform="translate(51.701201, 27.119362)">
                        <mask id="mask-8" fill="white">
                            <use xlink:href="#path-7"></use>
                        </mask>
                        <g id="Clip-14"></g>
                        <path d="M2.86759862,3.25359811 L2.86759862,2.74008325 L2.02095149,2.75051402 C1.52986426,2.75051402 1.2412708,2.92462765 1.2412708,3.31136854 C1.2412708,3.62108219 1.46289782,3.84414021 1.87665475,3.84414021 C2.51203871,3.84414021 2.86759862,3.45659696 2.86759862,3.25359811 M4.10886942,1.99468432 L4.10886942,4.80296876 L2.94492891,4.80296876 L2.89629852,4.38654029 L2.87716526,4.38654029 C2.55987189,4.64811193 2.10784842,4.88079836 1.56892802,4.88079836 C0.510220494,4.88079836 0,4.25094027 0,3.38919813 C0,2.43036959 0.606684056,1.8590843 1.88622139,1.84945589 L2.86759862,1.84945589 C2.82933208,1.30705581 2.55030525,1.07436939 2.05921803,1.07436939 C1.64546109,1.07436939 1.15517109,1.20034101 0.75098079,1.40414222 L0.326860004,0.435685272 C0.635383959,0.27120004 1.34730099,0 2.19394812,0 C3.36825248,0 4.10886942,0.561656888 4.10886942,1.99468432" id="Fill-13" fill="#000000" mask="url(#mask-8)"></path>
                    </g>
                    <path d="M61.3069785,29.1141267 L61.3069785,31.9224111 L60.0457772,31.9224111 L60.0457772,29.4334687 C60.0457772,28.5324106 59.729281,28.2523845 59.1417302,28.2523845 C58.5063463,28.2523845 58.0734561,28.6976982 58.0734561,29.5401835 L58.0734561,31.9224111 L56.813052,31.9224111 L56.813052,27.1964696 L58.0734561,27.1964696 L58.0734561,27.8070709 L58.0933866,27.8070709 C58.4776464,27.3513264 59.0165668,27.1194424 59.5945509,27.1194424 C60.6038308,27.1194424 61.3069785,27.6610401 61.3069785,29.1141267" id="Fill-16" fill="#000000"></path>
                    <g id="Group-20" transform="translate(62.063779, 27.118800)">
                        <mask id="mask-10" fill="white">
                            <use xlink:href="#path-9"></use>
                        </mask>
                        <g id="Clip-19"></g>
                        <path d="M0,2.44080036 C0,0.987713756 1.01964377,0 2.47377218,0 C3.22395575,0 3.99406981,0.300887618 4.46522654,0.901058121 L3.61857941,1.63682864 C3.36825248,1.3463718 3.00232872,1.13374455 2.52160535,1.13374455 C1.77062456,1.13374455 1.27076792,1.66571386 1.27076792,2.43117196 C1.27076792,3.2054561 1.78975783,3.74785618 2.53117198,3.74785618 C3.03182584,3.74785618 3.40651902,3.51516975 3.62814605,3.26402889 L4.48435981,4.02868462 C4.08016951,4.50368587 3.35868585,4.88160072 2.41557515,4.88160072 C1.01964377,4.88160072 0,3.8930846 0,2.44080036" id="Fill-18" fill="#000000" mask="url(#mask-10)"></path>
                    </g>
                    <path d="M68.1550144,29.0557946 L70.2245963,29.0557946 C70.0986356,28.5623389 69.762209,28.2325661 69.213722,28.2325661 C68.7035015,28.2325661 68.3001084,28.5133945 68.1550144,29.0557946 M71.4459366,29.9664811 L68.1454478,29.9664811 C68.3001084,30.5273356 68.741768,30.8763653 69.3484521,30.8763653 C69.8491059,30.8859937 70.2142325,30.663738 70.474126,30.3435936 L71.2920733,31.1090517 C70.887883,31.6225666 70.2046658,31.9996791 69.2623524,31.9996791 C67.8855542,31.9996791 66.84598,31.0312221 66.84598,29.5500527 C66.84598,28.1170252 67.8377211,27.1188807 69.1746582,27.1188807 C70.5514563,27.1188807 71.4746365,28.1258513 71.4746365,29.5107367 C71.4746365,29.6663959 71.4746365,29.8886515 71.4459366,29.9664811" id="Fill-21" fill="#000000"></path>
                    <g id="Group-25" transform="translate(71.873246, 27.119282)">
                        <mask id="mask-12" fill="white">
                            <use xlink:href="#path-11"></use>
                        </mask>
                        <g id="Clip-24"></g>
                        <path d="M0,4.19316985 L0.615453471,3.31136854 C1.00130772,3.67965498 1.40549802,3.86339702 1.91492129,3.86339702 C2.28084505,3.86339702 2.49210823,3.70854019 2.49210823,3.47665614 C2.49210823,3.25359811 2.25134793,3.14688331 1.63589446,2.95351286 C0.866577621,2.69194123 0.192927124,2.32365478 0.192927124,1.41377062 C0.192927124,0.561656888 0.923977426,-7.12645039e-15 1.88622139,-7.12645039e-15 C2.54073862,-7.12645039e-15 3.07009238,0.174113635 3.59944614,0.590542099 L2.99276209,1.51968307 C2.62683833,1.17145579 2.21308139,1.01659897 1.86708812,1.01659897 C1.66539158,1.01659897 1.40549802,1.12331378 1.40549802,1.37525701 C1.40549802,1.56862745 1.65502773,1.70422747 2.11661783,1.87834111 C3.13785604,2.25625596 3.73417624,2.47931398 3.73417624,3.40845494 C3.73417624,4.25094027 3.13785604,4.88079836 1.90615188,4.88079836 C1.15437387,4.88079836 0.519787128,4.63848353 0,4.19316985" id="Fill-23" fill="#000000" mask="url(#mask-12)"></path>
                    </g>
                    <path d="M33.0804646,16.9110075 L31.2827346,16.9110075 L31.2827346,7.8506795 L33.2048309,7.8506795 C35.7168696,7.8506795 37.5393134,9.76432476 37.5393134,12.4001003 C37.5393134,15.055935 35.7057085,16.9110075 33.0804646,16.9110075 M33.2120058,5.50134898 L28.4980468,5.49974425 L28.4980468,19.245093 L33.2694057,19.245093 C37.5409079,19.245093 40.3008818,16.5571636 40.3008818,12.3960885 C40.3008818,8.2711198 37.4516193,5.50134898 33.2120058,5.50134898" id="Fill-26" fill="#00874D"></path>
                    <g id="Group-30">
                        <mask id="mask-14" fill="white">
                            <use xlink:href="#path-13"></use>
                        </mask>
                        <g id="Clip-29"></g>
                        <path d="M18.4097121,7.8615917 L18.4097121,16.8842084 L10.6463884,21.3951156 L2.88226746,16.8842084 L2.88226746,7.8615917 L10.6463884,3.34988215 L18.4097121,7.8615917 Z M-0.000478331713,6.1870518 L-0.000478331713,18.5595507 L10.6463884,24.7449977 L21.2924579,18.5595507 L21.2924579,6.1870518 L10.6463884,0 L-0.000478331713,6.1870518 Z" id="Fill-28" fill="#00874D" mask="url(#mask-14)"></path>
                    </g>
                    <mask id="mask-16" fill="white">
                        <use xlink:href="#path-15"></use>
                    </mask>
                    <g id="Clip-32"></g>
                    <path d="M92.1442268,19.2447721 L94.5861102,19.2447721 L94.5861102,9.8249837 L92.1442268,9.8249837 L92.1442268,19.2447721 Z M94.7901984,6.73025425 C94.7901984,7.52058573 94.1508283,8.16408405 93.3655671,8.16408405 C92.5803059,8.16408405 91.9409358,7.52058573 91.9409358,6.73025425 C91.9409358,5.93992277 92.5803059,5.29642445 93.3655671,5.29642445 C94.1508283,5.29642445 94.7901984,5.93992277 94.7901984,6.73025425 L94.7901984,6.73025425 Z" id="Fill-31" fill="#00874D" mask="url(#mask-16)"></path>
                    <path d="M56.0075414,13.4190261 C54.9623866,13.0138308 54.6379183,12.8164485 54.6379183,12.3719372 C54.6379183,11.9498922 54.9743449,11.6987513 55.5379791,11.6987513 C56.4675371,11.6987513 57.1635097,12.2058472 57.7765715,12.7610852 L59.1932306,11.2373903 C58.2828059,10.2512813 56.9307216,9.66314628 55.566679,9.66314628 C53.5903718,9.66314628 52.2087904,10.8185547 52.2087904,12.4722331 C52.2087904,14.354586 53.6541494,15.0887518 55.0676196,15.5589389 C55.2374274,15.6151046 55.3936824,15.6648513 55.5387763,15.7105862 C56.3431708,15.9657389 56.7872221,16.1069555 56.7872221,16.595597 C56.7872221,16.8692042 56.6389393,17.3289604 55.646401,17.3289604 C54.7264096,17.3289604 53.8191738,16.8796349 53.3193172,16.1807733 L51.8827276,17.7181084 C52.8784548,18.8542601 54.0989979,19.4062886 55.6145122,19.4062886 C57.8483213,19.4062886 59.2362805,18.3158718 59.2362805,16.5610952 C59.2362805,14.798295 58.0173318,14.1981245 56.0075414,13.4190261" id="Fill-33" fill="#00874D" mask="url(#mask-16)"></path>
                    <path d="M110.771978,13.4190261 C109.726824,13.0138308 109.401558,12.8164485 109.401558,12.3719372 C109.401558,11.9498922 109.737985,11.6987513 110.301619,11.6987513 C111.231177,11.6987513 111.927947,12.2058472 112.540211,12.7610852 L113.95687,11.2373903 C113.047243,10.2512813 111.694361,9.66314628 110.330319,9.66314628 C108.354012,9.66314628 106.97243,10.8185547 106.97243,12.4722331 C106.97243,14.354586 108.417789,15.0887518 109.831259,15.5589389 C110.001067,15.6151046 110.157322,15.6648513 110.302416,15.7105862 C111.107608,15.9657389 111.550862,16.1069555 111.550862,16.595597 C111.550862,16.8692042 111.402579,17.3289604 110.410041,17.3289604 C109.490049,17.3289604 108.582814,16.8796349 108.082957,16.1807733 L106.646367,17.7181084 C107.642095,18.8542601 108.862638,19.4062886 110.378152,19.4062886 C112.612758,19.4062886 113.99992,18.3158718 113.99992,16.5610952 C113.99992,14.798295 112.780972,14.1981245 110.771978,13.4190261" id="Fill-34" fill="#00874D" mask="url(#mask-16)"></path>
                    <path d="M60.6927208,22.9028434 C62.3015098,22.9028434 63.3889173,21.7899604 63.3889173,19.5738228 L63.3889173,9.82506394 L60.9398589,9.82506394 L60.9398589,19.4727245 C60.9398589,20.3280477 60.5922712,20.7508951 60.0079093,20.7508951 C59.7240991,20.7508951 59.4498556,20.6682513 59.1939481,20.5206158 L58.7825829,22.5714658 C59.386078,22.8105712 59.8795569,22.9028434 60.6927208,22.9028434 M63.5906138,6.73033449 C63.5906138,7.52066596 62.9512437,8.16416428 62.1659825,8.16416428 C61.3799241,8.16416428 60.7413512,7.52066596 60.7413512,6.73033449 C60.7413512,5.93920064 61.3799241,5.29650469 62.1659825,5.29650469 C62.9512437,5.29650469 63.5906138,5.93920064 63.5906138,6.73033449" id="Fill-35" fill="#00874D" mask="url(#mask-16)"></path>
                    <path d="M70.3558984,16.170503 C70.3558984,16.6495161 69.3609684,17.4109623 68.1818807,17.4109623 C67.4540193,17.4109623 66.9756876,16.9279374 66.9756876,16.3253598 C66.9756876,15.9322 67.1925313,15.2044531 68.4569215,15.2044531 C69.3912628,15.2044531 70.3558984,15.4981195 70.3558984,15.4981195 L70.3558984,16.170503 Z M71.3221284,10.3485282 C70.666814,9.91284289 69.7555921,9.66330675 68.822048,9.66330675 C67.2834143,9.66330675 66.0198214,10.2209518 65.2600712,11.2343413 C65.4258929,11.4156762 66.4798171,12.5405948 66.6847025,12.7548267 C67.0681651,12.2156361 67.4340888,11.9364124 67.9754009,11.7663106 C68.1770974,11.7029236 68.39713,11.6700266 68.6283237,11.6700266 C68.9256866,11.6700266 69.2238467,11.7245875 69.4454737,11.8200692 C70.0242551,12.0671982 70.3558984,12.5502232 70.3558984,13.1463818 L70.3558984,13.7609949 C70.2881347,13.7264932 69.5243984,13.3991274 68.2863165,13.3991274 C66.3163871,13.3991274 64.8295726,14.7093927 64.8295726,16.4457149 C64.8295726,18.1611755 66.1083128,19.406449 67.8677762,19.406449 C68.9655475,19.406449 69.6479674,18.9202146 70.2506654,18.4179329 L70.3558984,18.4179329 L70.3558984,19.2451733 L72.6742127,19.2451733 L72.6742127,13.0854019 C72.6742127,11.8658041 72.2190004,10.9446868 71.3221284,10.3485282 L71.3221284,10.3485282 Z" id="Fill-36" fill="#00874D" mask="url(#mask-16)"></path>
                    <path d="M77.2147765,10.9280778 L77.1541879,10.9280778 L77.1541879,9.82482323 L74.6660657,9.82482323 L74.6660657,19.2446116 L77.1541879,19.2446116 L77.1502018,15.0041021 C77.1502018,13.3038865 77.9872823,12.1468733 80.0967251,12.1468733 L80.0967251,9.66354747 C78.8395099,9.68280427 77.8214606,10.0671381 77.2147765,10.9280778" id="Fill-37" fill="#00874D" mask="url(#mask-16)"></path>
                    <path d="M85.3341385,17.1836518 C83.9916208,17.1836518 82.9400883,16.0202196 82.9400883,14.534236 C82.9400883,13.0434381 83.9868375,11.8751918 85.3221802,11.8751918 C86.8058057,11.8751918 87.7234054,13.255263 87.7234054,14.534236 C87.7234054,15.9953463 86.6519423,17.1836518 85.3341385,17.1836518 M87.7090554,18.4184946 L87.8222606,18.4184946 L87.8222606,19.2449326 L90.1445611,19.2449326 L90.1445611,5.49958377 L87.6994888,5.49958377 L87.6994888,10.601033 L87.6054169,10.601033 C87.1199102,10.0153052 85.9711169,9.66386841 85.1922334,9.66386841 C82.2249823,9.66386841 80.6233683,12.1736723 80.6233683,14.5350384 C80.6233683,16.3339451 81.3942796,17.4692944 82.0400274,18.1055714 C82.8802968,18.9328118 84.0290901,19.4070107 85.1922334,19.4070107 C85.7494898,19.4070107 86.635998,19.239316 87.7090554,18.4184946" id="Fill-38" fill="#00874D" mask="url(#mask-16)"></path>
                    <path d="M99.1204557,10.5954967 L99.027181,10.5954967 L99.027181,9.82442205 L96.5805143,9.82442205 L96.5805143,19.2442104 L99.027181,19.2442104 L99.027181,14.3425505 C99.027181,12.176962 100.362524,11.8536081 101.158946,11.8536081 C102.567633,11.8536081 103.069881,13.0314829 103.069881,14.1339351 L103.069881,19.2442104 L105.514953,19.2442104 L105.514953,14.1628203 C105.514953,11.3425004 104.017775,9.66394865 101.507331,9.66394865 C99.7733785,9.66394865 99.1332112,10.5682162 99.1204557,10.5954967" id="Fill-39" fill="#00874D" mask="url(#mask-16)"></path>
                    <path d="M44.1831017,13.5706735 C44.4613314,12.4417431 45.273698,11.8207111 46.3642944,11.8207111 C47.4301769,11.8207111 48.185941,12.4232887 48.4601845,13.5706735 L44.1831017,13.5706735 Z M50.8749624,14.4316133 C50.8582208,11.6145028 48.9735939,9.66394865 46.2797891,9.66394865 C43.5899704,9.66394865 41.638377,11.7083797 41.638377,14.5254902 C41.638377,17.3995687 43.6202648,19.4062886 46.4583663,19.4062886 C48.120569,19.4062886 49.5627391,18.7916754 50.4221417,17.7173061 C50.2467534,17.5231332 49.159346,16.372539 48.9656217,16.1751567 C48.5159898,16.691881 47.6860843,17.2310717 46.6520906,17.2310717 C45.4124142,17.2310717 44.4764785,16.5265935 44.1735351,15.3190311 L50.8167654,15.3190311 C50.8566264,15.1401033 50.8749624,14.7333032 50.8749624,14.4316133 L50.8749624,14.4316133 Z" id="Fill-40" fill="#00874D" mask="url(#mask-16)"></path>
                </g>
            </g>
        </g>
    </g>
</svg>