<?xml version="1.0" encoding="utf-8"?>
<!-- Generator: Adobe Illustrator 21.1.0, SVG Export Plug-In . SVG Version: 6.00 Build 0)  -->
<svg version="1.1" id="logo-securite-gris-f" xmlns="http://www.w3.org/2000/svg" xmlns:xlink="http://www.w3.org/1999/xlink"
	 x="0px" y="0px" width="142px" height="36px" viewBox="0 0 142 36" style="enable-background:new 0 0 142 36;"
	 xml:space="preserve">
<style type="text/css">
	.st0{fill:#3E3E3E;}
	.st1{fill:#BFCDDC;}
	.st2{fill:#FFFFFF;}
</style>
<g>
	<g>
		<g>
			<ellipse class="st0" cx="18.4" cy="18" rx="17.9" ry="17.5"/>
		</g>
		<g>
			<path class="st1" d="M24.1,17.2h-2.7v-6.3c0-1.8-1.5-3.3-3.3-3.3s-3.3,1.5-3.3,3.3v6.3h-2.6v-6.3c0-3.2,2.6-5.9,5.9-5.9
				S24,7.6,24,10.9C24.1,10.8,24.1,17.2,24.1,17.2z"/>
		</g>
		<g>
			<rect x="9.1" y="15.4" class="st1" width="9.3" height="13.9"/>
		</g>
		<g>
			<rect x="18.3" y="15.4" class="st2" width="9.1" height="13.9"/>
		</g>
		<g>
			<g>
				<rect x="18.3" y="17.7" class="st1" width="9.2" height="0.9"/>
			</g>
			<g>
				<rect x="18.3" y="20.6" class="st1" width="9.2" height="0.9"/>
			</g>
			<g>
				<rect x="18.3" y="23.5" class="st1" width="9.2" height="0.9"/>
			</g>
			<g>
				<rect x="18.3" y="26.4" class="st1" width="9.2" height="0.9"/>
			</g>
		</g>
		<g>
			<g>
				<rect x="9.1" y="17.7" class="st2" width="9.2" height="0.9"/>
			</g>
			<g>
				<rect x="9.1" y="20.6" class="st2" width="9.2" height="0.9"/>
			</g>
			<g>
				<rect x="9.1" y="23.5" class="st2" width="9.2" height="0.9"/>
			</g>
			<g>
				<rect x="9.1" y="26.4" class="st2" width="9.2" height="0.9"/>
			</g>
		</g>
		<g>
			<rect x="26.9" y="15.4" class="st1" width="0.9" height="13.9"/>
		</g>
	</g>
	<g>
		<path class="st0" d="M43.4,12.4l2.2-0.2c0.1,0.7,0.4,1.3,0.8,1.6s1,0.5,1.7,0.5c0.7,0,1.3-0.2,1.7-0.5c0.4-0.3,0.6-0.7,0.6-1.1
			c0-0.3-0.1-0.5-0.2-0.7c-0.2-0.2-0.4-0.3-0.8-0.5c-0.3-0.1-0.9-0.3-1.8-0.5c-1.2-0.3-2.1-0.7-2.6-1.1c-0.7-0.6-1-1.4-1-2.2
			c0-0.6,0.2-1.1,0.5-1.6c0.3-0.5,0.8-0.9,1.4-1.1c0.6-0.3,1.4-0.4,2.2-0.4c1.4,0,2.5,0.3,3.2,0.9s1.1,1.4,1.1,2.5L50,8.2
			c-0.1-0.6-0.3-1-0.6-1.2c-0.3-0.3-0.8-0.4-1.5-0.4c-0.7,0-1.2,0.1-1.6,0.4C46.1,7.1,46,7.4,46,7.6c0,0.3,0.1,0.5,0.3,0.7
			c0.3,0.2,1,0.5,2.1,0.7s1.9,0.5,2.5,0.8s1,0.7,1.3,1.1s0.5,1.1,0.5,1.8c0,0.6-0.2,1.2-0.5,1.8c-0.4,0.6-0.9,1-1.5,1.2
			c-0.7,0.3-1.5,0.4-2.5,0.4c-1.4,0-2.5-0.3-3.3-1C44,14.6,43.5,13.6,43.4,12.4z"/>
		<path class="st0" d="M59.8,13.4l2.2,0.4c-0.3,0.8-0.7,1.4-1.3,1.8c-0.6,0.4-1.4,0.6-2.3,0.6c-1.4,0-2.5-0.5-3.2-1.4
			c-0.5-0.7-0.8-1.7-0.8-2.8c0-1.3,0.4-2.4,1.1-3.1c0.7-0.8,1.6-1.1,2.7-1.1c1.2,0,2.2,0.4,2.9,1.2s1,2,1,3.6h-5.5
			c0,0.6,0.2,1.1,0.5,1.5s0.8,0.5,1.3,0.5c0.3,0,0.6-0.1,0.9-0.3C59.5,14.1,59.7,13.9,59.8,13.4z M59.9,11.3c0-0.6-0.2-1.1-0.5-1.4
			c-0.3-0.3-0.7-0.5-1.1-0.5c-0.5,0-0.9,0.2-1.2,0.5c-0.3,0.3-0.5,0.8-0.5,1.4H59.9z M57.1,7l1.1-2.3h2.4L58.5,7H57.1z"/>
		<path class="st0" d="M71.5,10.3l-2.1,0.4c-0.1-0.4-0.2-0.7-0.5-0.9s-0.6-0.3-1-0.3c-0.5,0-1,0.2-1.3,0.6s-0.5,1-0.5,1.8
			c0,1,0.2,1.6,0.5,2s0.8,0.6,1.3,0.6c0.4,0,0.8-0.1,1-0.3s0.4-0.6,0.6-1.2l2.1,0.4c-0.2,1-0.6,1.7-1.3,2.2
			c-0.6,0.5-1.5,0.7-2.5,0.7c-1.2,0-2.2-0.4-2.9-1.1c-0.7-0.7-1.1-1.8-1.1-3.1c0-1.3,0.4-2.4,1.1-3.1s1.7-1.1,2.9-1.1
			c1,0,1.8,0.2,2.4,0.6S71.2,9.5,71.5,10.3z"/>
		<path class="st0" d="M79,16v-1.2c-0.3,0.4-0.7,0.8-1.2,1c-0.5,0.2-1,0.4-1.5,0.4c-0.6,0-1-0.1-1.5-0.4c-0.4-0.2-0.8-0.6-1-1
			s-0.3-1-0.3-1.8V7.9h2.2v3.7c0,1.1,0,1.8,0.1,2.1c0.1,0.3,0.2,0.5,0.4,0.6s0.5,0.2,0.8,0.2c0.4,0,0.7-0.1,1-0.3s0.5-0.4,0.6-0.7
			c0.1-0.3,0.2-1,0.2-2.2V7.9h2.2V16H79z"/>
		<path class="st0" d="M85.9,16h-2.2V7.9h2v1.1c0.3-0.5,0.7-0.9,0.9-1.1c0.3-0.2,0.6-0.3,0.9-0.3c0.5,0,1,0.1,1.4,0.4L88.4,10
			c-0.4-0.2-0.7-0.3-1-0.3c-0.3,0-0.6,0.1-0.8,0.2c-0.2,0.2-0.4,0.5-0.5,0.9c-0.1,0.4-0.2,1.3-0.2,2.7V16z"/>
		<path class="st0" d="M90.4,6.9v-2h2.2v2H90.4z M90.4,16V7.9h2.2V16H90.4z"/>
		<path class="st0" d="M99.1,7.9v1.7h-1.5v3.3c0,0.7,0,1,0,1.2s0.1,0.2,0.2,0.3c0.1,0.1,0.2,0.1,0.4,0.1c0.2,0,0.5-0.1,0.9-0.2
			l0.2,1.7c-0.5,0.2-1.1,0.3-1.7,0.3c-0.4,0-0.7-0.1-1.1-0.2c-0.3-0.1-0.5-0.3-0.7-0.5s-0.2-0.5-0.3-0.8c0-0.2-0.1-0.7-0.1-1.5V9.6
			h-1V7.9h1V6.3l2.2-1.2v2.8H99.1z"/>
		<path class="st0" d="M105.9,13.4l2.2,0.4c-0.3,0.8-0.7,1.4-1.3,1.8c-0.6,0.4-1.4,0.6-2.3,0.6c-1.4,0-2.5-0.5-3.2-1.4
			c-0.5-0.7-0.8-1.7-0.8-2.8c0-1.3,0.4-2.4,1.1-3.1c0.7-0.8,1.6-1.1,2.7-1.1c1.2,0,2.2,0.4,2.9,1.2s1,2,1,3.6h-5.5
			c0,0.6,0.2,1.1,0.5,1.5s0.8,0.5,1.3,0.5c0.3,0,0.6-0.1,0.9-0.3S105.7,13.9,105.9,13.4z M106,11.3c0-0.6-0.2-1.1-0.5-1.4
			s-0.7-0.5-1.1-0.5c-0.5,0-0.9,0.2-1.2,0.5c-0.3,0.3-0.5,0.8-0.5,1.4H106z M103.2,7l1.1-2.3h2.4L104.6,7H103.2z"/>
	</g>
	<g>
		<path class="st0" d="M43.6,30.1l2,0.2c0,0.2,0.1,0.4,0.2,0.5c0.2,0.1,0.4,0.2,0.8,0.2c0.5,0,0.8-0.1,1-0.2
			c0.2-0.1,0.3-0.2,0.4-0.4c0.1-0.1,0.1-0.4,0.1-0.8v-1c-0.5,0.7-1.2,1.1-2,1.1c-0.9,0-1.6-0.4-2.1-1.1c-0.4-0.6-0.6-1.3-0.6-2.2
			c0-1.1,0.3-1.9,0.8-2.5c0.5-0.6,1.2-0.9,2-0.9c0.8,0,1.5,0.4,2,1.1v-0.9h1.7V29c0,0.8-0.1,1.4-0.2,1.7c-0.1,0.4-0.3,0.7-0.5,0.9
			s-0.5,0.4-0.9,0.5c-0.4,0.1-0.9,0.2-1.5,0.2c-1.1,0-1.9-0.2-2.4-0.6c-0.5-0.4-0.7-0.9-0.7-1.4C43.6,30.3,43.6,30.2,43.6,30.1z
			 M45.2,26.3c0,0.7,0.1,1.2,0.4,1.5c0.3,0.3,0.6,0.5,1,0.5c0.4,0,0.8-0.2,1.1-0.5c0.3-0.3,0.4-0.8,0.4-1.5c0-0.7-0.1-1.2-0.4-1.5
			c-0.3-0.3-0.6-0.5-1.1-0.5c-0.4,0-0.8,0.2-1,0.5C45.3,25.1,45.2,25.6,45.2,26.3z"/>
		<path class="st0" d="M52.8,25.1l-1.6-0.3c0.2-0.6,0.5-1.1,0.9-1.4s1.1-0.5,2-0.5c0.8,0,1.4,0.1,1.8,0.3c0.4,0.2,0.7,0.4,0.8,0.7
			c0.2,0.3,0.2,0.8,0.2,1.6l0,2c0,0.6,0,1,0.1,1.3c0.1,0.3,0.2,0.6,0.3,0.9h-1.8c0-0.1-0.1-0.3-0.2-0.5c0-0.1-0.1-0.2-0.1-0.2
			c-0.3,0.3-0.6,0.5-1,0.6c-0.3,0.1-0.7,0.2-1.1,0.2c-0.7,0-1.2-0.2-1.6-0.5c-0.4-0.4-0.6-0.8-0.6-1.4c0-0.4,0.1-0.7,0.3-1
			c0.2-0.3,0.4-0.5,0.8-0.7c0.3-0.2,0.8-0.3,1.4-0.4c0.8-0.2,1.4-0.3,1.7-0.4v-0.2c0-0.3-0.1-0.6-0.3-0.7c-0.2-0.1-0.5-0.2-1-0.2
			c-0.3,0-0.6,0.1-0.7,0.2C53.1,24.6,52.9,24.8,52.8,25.1z M55.2,26.5c-0.2,0.1-0.6,0.2-1.1,0.3c-0.5,0.1-0.8,0.2-1,0.3
			c-0.2,0.2-0.3,0.4-0.3,0.6c0,0.2,0.1,0.5,0.3,0.6c0.2,0.2,0.4,0.3,0.7,0.3c0.3,0,0.6-0.1,0.9-0.3c0.2-0.2,0.4-0.3,0.4-0.6
			c0-0.1,0.1-0.4,0.1-0.8V26.5z"/>
		<path class="st0" d="M60.3,29.7h-1.8v-6.6h1.6v0.9c0.3-0.4,0.5-0.7,0.8-0.9c0.2-0.1,0.5-0.2,0.8-0.2c0.4,0,0.8,0.1,1.2,0.3
			l-0.5,1.5c-0.3-0.2-0.6-0.3-0.8-0.3c-0.2,0-0.5,0.1-0.6,0.2s-0.3,0.4-0.4,0.7c-0.1,0.3-0.1,1.1-0.1,2.2V29.7z"/>
		<path class="st0" d="M64.8,25.1l-1.6-0.3c0.2-0.6,0.5-1.1,0.9-1.4c0.4-0.3,1.1-0.5,2-0.5c0.8,0,1.4,0.1,1.8,0.3
			c0.4,0.2,0.7,0.4,0.8,0.7c0.2,0.3,0.2,0.8,0.2,1.6l0,2c0,0.6,0,1,0.1,1.3c0.1,0.3,0.2,0.6,0.3,0.9h-1.8c0-0.1-0.1-0.3-0.2-0.5
			c0-0.1-0.1-0.2-0.1-0.2c-0.3,0.3-0.6,0.5-1,0.6c-0.3,0.1-0.7,0.2-1.1,0.2c-0.7,0-1.2-0.2-1.6-0.5c-0.4-0.4-0.6-0.8-0.6-1.4
			c0-0.4,0.1-0.7,0.3-1c0.2-0.3,0.4-0.5,0.8-0.7c0.3-0.2,0.8-0.3,1.4-0.4c0.8-0.2,1.4-0.3,1.7-0.4v-0.2c0-0.3-0.1-0.6-0.3-0.7
			c-0.2-0.1-0.5-0.2-1-0.2c-0.3,0-0.6,0.1-0.7,0.2C65,24.6,64.9,24.8,64.8,25.1z M67.2,26.5c-0.2,0.1-0.6,0.2-1.1,0.3
			c-0.5,0.1-0.8,0.2-1,0.3c-0.2,0.2-0.3,0.4-0.3,0.6c0,0.2,0.1,0.5,0.3,0.6c0.2,0.2,0.4,0.3,0.7,0.3c0.3,0,0.6-0.1,0.9-0.3
			c0.2-0.2,0.4-0.3,0.4-0.6c0-0.1,0.1-0.4,0.1-0.8V26.5z"/>
		<path class="st0" d="M76.6,29.7h-1.8v-3.3c0-0.7,0-1.2-0.1-1.4c-0.1-0.2-0.2-0.4-0.4-0.5c-0.2-0.1-0.4-0.2-0.6-0.2
			c-0.3,0-0.6,0.1-0.8,0.2c-0.2,0.2-0.4,0.4-0.5,0.7c-0.1,0.3-0.1,0.8-0.1,1.5v3h-1.8v-6.6h1.6v1c0.6-0.7,1.3-1.1,2.2-1.1
			c0.4,0,0.7,0.1,1.1,0.2c0.3,0.1,0.6,0.3,0.7,0.5c0.2,0.2,0.3,0.5,0.3,0.7c0.1,0.3,0.1,0.7,0.1,1.2V29.7z"/>
		<path class="st0" d="M81.3,23.1v1.4h-1.2v2.6c0,0.5,0,0.8,0,0.9c0,0.1,0.1,0.2,0.2,0.2c0.1,0.1,0.2,0.1,0.3,0.1
			c0.2,0,0.4-0.1,0.7-0.2l0.2,1.3c-0.4,0.2-0.9,0.3-1.4,0.3c-0.3,0-0.6-0.1-0.9-0.2c-0.3-0.1-0.4-0.2-0.6-0.4
			c-0.1-0.2-0.2-0.4-0.2-0.7c0-0.2-0.1-0.6-0.1-1.2v-2.9h-0.8v-1.4h0.8v-1.3l1.8-1v2.3H81.3z"/>
		<path class="st0" d="M82.5,22.2v-1.6h1.8v1.6H82.5z M82.5,29.7v-6.6h1.8v6.6H82.5z"/>
		<path class="st0" d="M89.8,27.6l1.8,0.3c-0.2,0.6-0.6,1.1-1.1,1.4c-0.5,0.3-1.1,0.5-1.8,0.5c-1.2,0-2-0.4-2.6-1.1
			c-0.4-0.6-0.7-1.4-0.7-2.3c0-1.1,0.3-1.9,0.9-2.6s1.3-0.9,2.2-0.9c1,0,1.8,0.3,2.4,1c0.6,0.6,0.8,1.6,0.8,3h-4.4
			c0,0.5,0.2,0.9,0.4,1.2c0.3,0.3,0.6,0.4,1,0.4c0.3,0,0.5-0.1,0.7-0.2C89.6,28.2,89.7,27.9,89.8,27.6z M89.9,25.8
			c0-0.5-0.1-0.9-0.4-1.1c-0.3-0.3-0.6-0.4-0.9-0.4c-0.4,0-0.7,0.1-1,0.4c-0.3,0.3-0.4,0.7-0.4,1.1H89.9z"/>
		<path class="st0" d="M97.8,25.1l-1.6-0.3c0.2-0.6,0.5-1.1,0.9-1.4s1.1-0.5,2-0.5c0.8,0,1.4,0.1,1.8,0.3c0.4,0.2,0.7,0.4,0.8,0.7
			c0.2,0.3,0.2,0.8,0.2,1.6l0,2c0,0.6,0,1,0.1,1.3c0.1,0.3,0.2,0.6,0.3,0.9h-1.8c0-0.1-0.1-0.3-0.2-0.5c0-0.1-0.1-0.2-0.1-0.2
			c-0.3,0.3-0.6,0.5-1,0.6c-0.3,0.1-0.7,0.2-1.1,0.2c-0.7,0-1.2-0.2-1.6-0.5c-0.4-0.4-0.6-0.8-0.6-1.4c0-0.4,0.1-0.7,0.3-1
			c0.2-0.3,0.4-0.5,0.8-0.7c0.3-0.2,0.8-0.3,1.4-0.4c0.8-0.2,1.4-0.3,1.7-0.4v-0.2c0-0.3-0.1-0.6-0.3-0.7c-0.2-0.1-0.5-0.2-1-0.2
			c-0.3,0-0.6,0.1-0.7,0.2C98,24.6,97.9,24.8,97.8,25.1z M100,22.3h-1.1l-1.7-1.8h2L100,22.3z M100.1,26.5c-0.2,0.1-0.6,0.2-1.1,0.3
			c-0.5,0.1-0.8,0.2-1,0.3c-0.2,0.2-0.3,0.4-0.3,0.6c0,0.2,0.1,0.5,0.3,0.6c0.2,0.2,0.4,0.3,0.7,0.3c0.3,0,0.6-0.1,0.9-0.3
			c0.2-0.2,0.4-0.3,0.4-0.6c0-0.1,0.1-0.4,0.1-0.8V26.5z"/>
		<path class="st0" d="M111.1,29.7h-1.8v-6.5c-0.6,0.6-1.4,1-2.3,1.3v-1.6c0.5-0.1,1-0.4,1.5-0.8c0.5-0.4,0.9-0.9,1.1-1.4h1.4V29.7z
			"/>
		<path class="st0" d="M116.6,20.6c0.9,0,1.6,0.3,2.1,0.9c0.6,0.7,0.9,2,0.9,3.7c0,1.7-0.3,2.9-0.9,3.7c-0.5,0.6-1.2,0.9-2.1,0.9
			c-0.9,0-1.6-0.3-2.2-1c-0.5-0.7-0.8-1.9-0.8-3.6c0-1.7,0.3-2.9,0.9-3.7C115.1,20.9,115.8,20.6,116.6,20.6z M116.6,22
			c-0.2,0-0.4,0.1-0.6,0.2c-0.2,0.1-0.3,0.4-0.4,0.7c-0.1,0.4-0.2,1.2-0.2,2.3c0,1.1,0.1,1.8,0.2,2.2s0.2,0.7,0.4,0.8
			s0.4,0.2,0.6,0.2s0.4-0.1,0.6-0.2c0.2-0.1,0.3-0.4,0.4-0.7c0.1-0.4,0.2-1.2,0.2-2.3c0-1.1-0.1-1.8-0.2-2.2
			c-0.1-0.4-0.2-0.7-0.4-0.8C117.1,22.1,116.9,22,116.6,22z"/>
		<path class="st0" d="M123.7,20.6c0.9,0,1.6,0.3,2.1,0.9c0.6,0.7,0.9,2,0.9,3.7c0,1.7-0.3,2.9-0.9,3.7c-0.5,0.6-1.2,0.9-2.1,0.9
			c-0.9,0-1.6-0.3-2.2-1c-0.5-0.7-0.8-1.9-0.8-3.6c0-1.7,0.3-2.9,0.9-3.7C122.1,20.9,122.8,20.6,123.7,20.6z M123.7,22
			c-0.2,0-0.4,0.1-0.6,0.2c-0.2,0.1-0.3,0.4-0.4,0.7c-0.1,0.4-0.2,1.2-0.2,2.3c0,1.1,0.1,1.8,0.2,2.2s0.2,0.7,0.4,0.8
			s0.4,0.2,0.6,0.2s0.4-0.1,0.6-0.2c0.2-0.1,0.3-0.4,0.4-0.7c0.1-0.4,0.2-1.2,0.2-2.3c0-1.1-0.1-1.8-0.2-2.2
			c-0.1-0.4-0.2-0.7-0.4-0.8C124.1,22.1,123.9,22,123.7,22z"/>
		<path class="st0" d="M131.3,22.9c0-0.8,0.2-1.4,0.5-1.8c0.4-0.4,0.9-0.6,1.5-0.6c0.6,0,1.1,0.2,1.5,0.6c0.4,0.4,0.5,1,0.5,1.8
			c0,0.8-0.2,1.4-0.5,1.8c-0.4,0.4-0.9,0.6-1.5,0.6c-0.6,0-1.1-0.2-1.5-0.6C131.4,24.3,131.3,23.7,131.3,22.9z M132.6,22.9
			c0,0.6,0.1,1,0.2,1.2c0.1,0.1,0.2,0.2,0.4,0.2c0.2,0,0.3-0.1,0.4-0.2c0.1-0.2,0.2-0.6,0.2-1.2c0-0.6-0.1-1-0.2-1.2
			c-0.1-0.2-0.3-0.2-0.4-0.2c-0.2,0-0.3,0.1-0.4,0.2C132.7,21.9,132.6,22.3,132.6,22.9z M134.6,30h-1.3l4.9-9.5h1.3L134.6,30z
			 M137.5,27.6c0-0.8,0.2-1.4,0.5-1.8c0.4-0.4,0.9-0.6,1.5-0.6c0.6,0,1.1,0.2,1.5,0.6c0.4,0.4,0.5,1,0.5,1.8c0,0.8-0.2,1.4-0.5,1.8
			c-0.4,0.4-0.9,0.6-1.5,0.6c-0.6,0-1.1-0.2-1.5-0.6C137.7,29.1,137.5,28.5,137.5,27.6z M138.9,27.6c0,0.6,0.1,1,0.2,1.2
			c0.1,0.2,0.2,0.2,0.4,0.2c0.2,0,0.3-0.1,0.4-0.2c0.1-0.2,0.2-0.6,0.2-1.2s-0.1-1-0.2-1.2c-0.1-0.1-0.3-0.2-0.4-0.2
			c-0.2,0-0.3,0.1-0.4,0.2C138.9,26.7,138.9,27.1,138.9,27.6z"/>
	</g>
</g>
</svg>
